
<svg id="Layer_1" xmlns="http://www.w3.org/2000/svg" viewBox="0 0 100 100"><defs><style>.cls-1{fill:#fff;}.cls-2{fill:#1c4d73;}</style></defs><path class="cls-2" d="m50,0h0c27.61,0,50,22.39,50,50h0c0,27.61-22.39,50-50,50h0C22.39,100,0,77.61,0,50h0C0,22.39,22.39,0,50,0Z"/><path class="cls-1" d="m31.62,72.02c-1.13,0-2.12-.42-2.97-1.27-.85-.85-1.27-1.84-1.27-2.97v-10.11h4.24v10.11h36.76v-10.11h4.24v10.11c0,1.13-.42,2.12-1.27,2.97-.85.85-1.84,1.27-2.97,1.27H31.62Zm16.26-10.81v-26.22l-8.48,8.48-3.04-3.04,13.64-13.64,13.64,13.64-3.04,3.04-8.48-8.48v26.22h-4.24Z"/></svg>